<svg width="329" height="503" viewBox="0 0 329 503" fill="none" xmlns="http://www.w3.org/2000/svg">
<path d="M328.577 208.098C328.577 205.703 328.562 203.308 328.577 200.927C328.661 187.667 321.503 179.44 308.4 177.771C307.694 177.686 307.002 177.572 306.253 177.458L300.959 176.673V166.194C300.959 161.802 301.057 157.368 301.17 153.062C301.382 143.951 301.608 134.526 300.789 125.501C297.881 93.6053 284.029 63.5776 261.762 40.9784C239.538 18.3935 209.844 4.12103 178.132 0.741838C113.803 -6.08783 53.0316 34.548 33.603 97.3695C26.5996 120.011 27.348 143.751 28.0681 166.707C28.1104 168.047 28.0963 169.402 28.0822 170.728C28.0822 171.298 28.0822 171.868 28.0822 172.425V177.13L23.4368 177.415C15.5863 177.885 9.28895 180.637 5.20837 185.385C1.35371 189.862 -0.453611 196.136 0.111175 203.065C0.450047 207.2 0.365333 211.292 0.280615 215.27C0.224136 218.165 0.167654 220.888 0.266492 223.626C1.00071 245.041 10.5174 261.096 28.5764 271.319C33.8007 274.271 36.3846 278.163 37.26 284.337C41.3264 313.352 47.5673 336.55 64.8074 355.471C67.2642 358.166 67.8008 362.244 67.8149 365.195C67.8573 372.909 67.8431 380.637 67.829 388.35C67.8008 402.48 67.7725 417.081 68.1397 431.41C68.3515 439.509 65.3157 443.786 57.7052 446.167C47.2991 449.404 36.8223 453.268 26.6985 456.989L21.573 458.871C18.0149 460.183 18.7068 462.507 18.9327 463.277C19.4551 465.002 20.2317 465.986 22.7167 465.858C23.2392 465.829 24.1993 465.459 25.0606 465.131C25.5124 464.96 25.9501 464.788 26.402 464.632C36.5399 461.081 46.6637 457.517 56.9145 453.91L71.1048 448.919L73.0109 452.954C80.1978 468.182 92.6373 478.248 112.151 484.65C128.501 490.025 144.965 496.399 159.494 502.017C163.08 503.4 165.932 503.385 169.66 501.96C185.573 495.871 202.658 489.441 219.898 483.524C237.237 477.578 248.688 467.854 255.931 452.911L257.851 448.948L277.167 455.72C286.684 459.071 296.186 462.407 305.703 465.772C307.708 466.485 308.979 466.428 309.515 465.63C310.348 464.361 310.786 462.45 310.659 461.823C310.405 461.153 308.753 459.527 306.931 458.829C296.341 454.779 285.413 450.972 274.851 447.294L267.763 444.827C265.434 444.014 260.605 442.318 260.689 435.417C260.831 423.882 260.873 412.147 260.915 400.798C260.958 389.192 261 377.186 261.155 365.366C261.212 361.288 262.737 356.982 265.137 354.116C276.32 340.828 283.719 325.629 287.135 308.932C289.013 299.75 290.581 291.238 291.936 282.897C292.797 277.621 295.155 274.271 299.829 271.719C315.94 262.921 325.301 249.661 327.673 232.337C328.746 224.495 328.704 216.183 328.675 208.156L328.577 208.098ZM25.0041 260.469C13.3978 250.445 7.60871 238.525 7.29808 224.039C7.12864 216.283 7.02981 207.956 7.3828 199.686C7.52399 196.393 8.73829 191.816 11.7034 188.821C14.7956 185.699 19.7657 185.357 22.4485 185.428C28.4493 185.585 29.1694 194.952 29.1977 195.352C30.2849 211.05 31.2591 226.534 32.2899 242.903L33.8854 268.14L24.99 260.455L25.0041 260.469ZM253.898 420.303C253.898 421.315 253.898 422.328 253.898 423.34C253.898 426.833 253.898 430.412 253.573 434.019C253.46 435.217 253.305 436.429 253.107 437.627C250.128 455.278 239.764 468.025 223.173 474.498C205.383 481.414 187.14 487.901 169.491 494.175C168.022 494.702 166.342 494.959 164.633 494.959C162.784 494.959 160.906 494.659 159.197 494.046C138.328 486.618 121.427 480.43 106.023 474.598C86.947 467.369 75.03 449.974 74.9312 429.172C74.8747 418.307 74.8889 407.3 74.903 396.663C74.903 391.915 74.903 387.181 74.903 382.476V369.473C74.903 369.473 90.5334 385.1 94.2469 388.293C103.043 395.85 111.346 402.994 119.945 410.165C126.228 415.398 133.076 418.007 141.265 418.236C142.437 418.264 143.637 418.25 144.866 418.193C154.298 417.694 163.829 417.779 173.063 417.865C179.134 417.922 185.403 417.965 191.531 417.865C194.369 417.808 197.447 417.038 199.763 415.783C215.605 407.214 228.468 394.638 240.272 382.49C240.894 381.849 253.94 365.937 253.94 365.937V382.034C253.94 385.727 253.94 389.434 253.94 393.127C253.94 402.038 253.968 411.263 253.898 420.346V420.303ZM294.421 160.804C294.421 165.096 294.393 169.63 294.393 174.535V174.948C293.701 183.218 293.052 191.73 292.374 200.442C290.623 222.97 288.816 246.268 286.542 269.765C285.512 280.359 283.394 290.91 281.346 301.105C280.767 303.956 280.203 306.808 279.652 309.659C277.026 323.248 270.446 336.18 258.939 350.352C242.899 370.1 224.91 390.546 202.05 406.287C197.349 409.524 192.562 411.021 186.9 410.893C170.973 410.622 156.515 410.622 142.691 410.893C142.48 410.893 142.268 410.893 142.056 410.893C136.21 410.893 131.113 409.253 126.073 405.774C108.338 393.54 93.6821 378.099 81.6804 364.611C80.6214 363.427 79.6048 362.187 78.6023 360.96C77.2327 359.292 75.9337 357.71 74.55 356.284C53.0316 334.07 46.8613 306.066 43.3879 279.104C37.7259 235.018 34.8738 188.75 34.6902 137.677C34.5914 110.245 43.0914 83.8528 59.2725 61.3248C75.383 38.8967 97.565 22.457 123.404 13.7881C163.151 0.456673 205.51 6.87285 239.637 31.3684C273.849 55.9495 293.814 94.3895 294.379 136.865C294.478 144.521 294.464 152.05 294.435 160.761L294.421 160.804ZM320.062 234.105C318.919 243.744 313.553 252.342 303.67 260.412L294.802 267.655L296.44 245.213C297.033 237.114 297.612 229.386 298.135 221.658C298.516 215.998 298.869 210.323 299.208 204.662C299.42 201.269 299.617 197.861 299.843 194.468C300.126 190.076 301.636 187.11 304.333 185.628C306.945 184.202 310.009 184.458 313.44 186.426C316.095 187.937 321.136 192.129 321.206 197.22C321.361 208.669 321.545 221.63 320.062 234.105Z" fill="#8ACC0D"/>
</svg>
